<?xml version="1.0" encoding="UTF-8" standalone="no"?>
<!DOCTYPE svg PUBLIC "-//W3C//DTD SVG 1.1//EN"
 "http://www.w3.org/Graphics/SVG/1.1/DTD/svg11.dtd">
<!-- Generated by graphviz version 2.40.1 (20161225.0304)
 -->
<!-- Title: G Pages: 1 -->
<svg width="1401pt" height="622pt"
 viewBox="0.00 0.00 1401.20 622.20" xmlns="http://www.w3.org/2000/svg" xmlns:xlink="http://www.w3.org/1999/xlink">
<g id="graph0" class="graph" transform="scale(1 1) rotate(0) translate(21.6 600.6)">
<title>G</title>
<polygon fill="#111111" stroke="transparent" points="-21.6,21.6 -21.6,-600.6 1379.6,-600.6 1379.6,21.6 -21.6,21.6"/>
<!-- src/App.js -->
<g id="node1" class="node">
<title>src/App.js</title>
<path fill="none" stroke="#c6c5fe" d="M268.3333,-267C268.3333,-267 203.6667,-267 203.6667,-267 199.8333,-267 196,-263.1667 196,-259.3333 196,-259.3333 196,-251.6667 196,-251.6667 196,-247.8333 199.8333,-244 203.6667,-244 203.6667,-244 268.3333,-244 268.3333,-244 272.1667,-244 276,-247.8333 276,-251.6667 276,-251.6667 276,-259.3333 276,-259.3333 276,-263.1667 272.1667,-267 268.3333,-267"/>
<text text-anchor="middle" x="236" y="-251.8" font-family="Arial" font-size="14.00" fill="#c6c5fe">src/App.js</text>
</g>
<!-- src/containers/checkout.js -->
<g id="node2" class="node">
<title>src/containers/checkout.js</title>
<path fill="none" stroke="#c6c5fe" d="M567.8333,-308C567.8333,-308 398.1667,-308 398.1667,-308 394.3333,-308 390.5,-304.1667 390.5,-300.3333 390.5,-300.3333 390.5,-292.6667 390.5,-292.6667 390.5,-288.8333 394.3333,-285 398.1667,-285 398.1667,-285 567.8333,-285 567.8333,-285 571.6667,-285 575.5,-288.8333 575.5,-292.6667 575.5,-292.6667 575.5,-300.3333 575.5,-300.3333 575.5,-304.1667 571.6667,-308 567.8333,-308"/>
<text text-anchor="middle" x="483" y="-292.8" font-family="Arial" font-size="14.00" fill="#c6c5fe">src/containers/checkout.js</text>
</g>
<!-- src/App.js&#45;&gt;src/containers/checkout.js -->
<g id="edge1" class="edge">
<title>src/App.js&#45;&gt;src/containers/checkout.js</title>
<path fill="none" stroke="#757575" d="M276.2345,-262.1786C310.5307,-267.8715 360.8628,-276.2262 403.2802,-283.2672"/>
<polygon fill="#757575" stroke="#757575" points="402.8788,-286.7483 413.3169,-284.9332 404.0251,-279.8428 402.8788,-286.7483"/>
</g>
<!-- src/containers/closed.js -->
<g id="node3" class="node">
<title>src/containers/closed.js</title>
<path fill="none" stroke="#cfffac" d="M559.3333,-431C559.3333,-431 406.6667,-431 406.6667,-431 402.8333,-431 399,-427.1667 399,-423.3333 399,-423.3333 399,-415.6667 399,-415.6667 399,-411.8333 402.8333,-408 406.6667,-408 406.6667,-408 559.3333,-408 559.3333,-408 563.1667,-408 567,-411.8333 567,-415.6667 567,-415.6667 567,-423.3333 567,-423.3333 567,-427.1667 563.1667,-431 559.3333,-431"/>
<text text-anchor="middle" x="483" y="-415.8" font-family="Arial" font-size="14.00" fill="#cfffac">src/containers/closed.js</text>
</g>
<!-- src/App.js&#45;&gt;src/containers/closed.js -->
<g id="edge2" class="edge">
<title>src/App.js&#45;&gt;src/containers/closed.js</title>
<path fill="none" stroke="#757575" d="M242.6266,-267.2289C259.1816,-295.3259 305.3393,-366.5895 365,-399.5 372.4537,-403.6117 380.5439,-406.9196 388.8758,-409.5756"/>
<polygon fill="#757575" stroke="#757575" points="388.1669,-413.0133 398.7442,-412.4033 390.0952,-406.2841 388.1669,-413.0133"/>
</g>
<!-- src/containers/menu.js -->
<g id="node4" class="node">
<title>src/containers/menu.js</title>
<path fill="none" stroke="#c6c5fe" d="M556.3333,-267C556.3333,-267 409.6667,-267 409.6667,-267 405.8333,-267 402,-263.1667 402,-259.3333 402,-259.3333 402,-251.6667 402,-251.6667 402,-247.8333 405.8333,-244 409.6667,-244 409.6667,-244 556.3333,-244 556.3333,-244 560.1667,-244 564,-247.8333 564,-251.6667 564,-251.6667 564,-259.3333 564,-259.3333 564,-263.1667 560.1667,-267 556.3333,-267"/>
<text text-anchor="middle" x="483" y="-251.8" font-family="Arial" font-size="14.00" fill="#c6c5fe">src/containers/menu.js</text>
</g>
<!-- src/App.js&#45;&gt;src/containers/menu.js -->
<g id="edge3" class="edge">
<title>src/App.js&#45;&gt;src/containers/menu.js</title>
<path fill="none" stroke="#757575" d="M276.2345,-255.5C307.4214,-255.5 351.8681,-255.5 391.5659,-255.5"/>
<polygon fill="#757575" stroke="#757575" points="391.813,-259.0001 401.8129,-255.5 391.8129,-252.0001 391.813,-259.0001"/>
</g>
<!-- src/containers/pay/index.js -->
<g id="node5" class="node">
<title>src/containers/pay/index.js</title>
<path fill="none" stroke="#c6c5fe" d="M569.3333,-349C569.3333,-349 396.6667,-349 396.6667,-349 392.8333,-349 389,-345.1667 389,-341.3333 389,-341.3333 389,-333.6667 389,-333.6667 389,-329.8333 392.8333,-326 396.6667,-326 396.6667,-326 569.3333,-326 569.3333,-326 573.1667,-326 577,-329.8333 577,-333.6667 577,-333.6667 577,-341.3333 577,-341.3333 577,-345.1667 573.1667,-349 569.3333,-349"/>
<text text-anchor="middle" x="483" y="-333.8" font-family="Arial" font-size="14.00" fill="#c6c5fe">src/containers/pay/index.js</text>
</g>
<!-- src/App.js&#45;&gt;src/containers/pay/index.js -->
<g id="edge4" class="edge">
<title>src/App.js&#45;&gt;src/containers/pay/index.js</title>
<path fill="none" stroke="#757575" d="M255.8288,-267.2068C280.5536,-281.2839 324.5085,-304.6205 365,-317.5 372.3093,-319.8249 379.9641,-321.8952 387.7129,-323.736"/>
<polygon fill="#757575" stroke="#757575" points="387.0354,-327.1709 397.5593,-325.9467 388.5689,-320.3409 387.0354,-327.1709"/>
</g>
<!-- src/containers/queue.js -->
<g id="node6" class="node">
<title>src/containers/queue.js</title>
<path fill="none" stroke="#c6c5fe" d="M558.8333,-226C558.8333,-226 407.1667,-226 407.1667,-226 403.3333,-226 399.5,-222.1667 399.5,-218.3333 399.5,-218.3333 399.5,-210.6667 399.5,-210.6667 399.5,-206.8333 403.3333,-203 407.1667,-203 407.1667,-203 558.8333,-203 558.8333,-203 562.6667,-203 566.5,-206.8333 566.5,-210.6667 566.5,-210.6667 566.5,-218.3333 566.5,-218.3333 566.5,-222.1667 562.6667,-226 558.8333,-226"/>
<text text-anchor="middle" x="483" y="-210.8" font-family="Arial" font-size="14.00" fill="#c6c5fe">src/containers/queue.js</text>
</g>
<!-- src/App.js&#45;&gt;src/containers/queue.js -->
<g id="edge5" class="edge">
<title>src/App.js&#45;&gt;src/containers/queue.js</title>
<path fill="none" stroke="#757575" d="M276.2345,-248.8214C310.5307,-243.1285 360.8628,-234.7738 403.2802,-227.7328"/>
<polygon fill="#757575" stroke="#757575" points="404.0251,-231.1572 413.3169,-226.0668 402.8788,-224.2517 404.0251,-231.1572"/>
</g>
<!-- src/store/actions/entities.js -->
<g id="node7" class="node">
<title>src/store/actions/entities.js</title>
<path fill="none" stroke="#cfffac" d="M1094.3333,-124C1094.3333,-124 923.6667,-124 923.6667,-124 919.8333,-124 916,-120.1667 916,-116.3333 916,-116.3333 916,-108.6667 916,-108.6667 916,-104.8333 919.8333,-101 923.6667,-101 923.6667,-101 1094.3333,-101 1094.3333,-101 1098.1667,-101 1102,-104.8333 1102,-108.6667 1102,-108.6667 1102,-116.3333 1102,-116.3333 1102,-120.1667 1098.1667,-124 1094.3333,-124"/>
<text text-anchor="middle" x="1009" y="-108.8" font-family="Arial" font-size="14.00" fill="#cfffac">src/store/actions/entities.js</text>
</g>
<!-- src/App.js&#45;&gt;src/store/actions/entities.js -->
<g id="edge6" class="edge">
<title>src/App.js&#45;&gt;src/store/actions/entities.js</title>
<path fill="none" stroke="#757575" d="M243.9975,-243.7461C262.0776,-218.2909 308.9216,-158.3607 365,-133.5 560.2619,-46.9365 822.4982,-77.8162 943.1847,-99.1048"/>
<polygon fill="#757575" stroke="#757575" points="942.9093,-102.6114 953.3713,-100.9386 944.1496,-95.7221 942.9093,-102.6114"/>
</g>
<!-- src/store/actions/view.js -->
<g id="node8" class="node">
<title>src/store/actions/view.js</title>
<path fill="none" stroke="#cfffac" d="M559.8333,-390C559.8333,-390 406.1667,-390 406.1667,-390 402.3333,-390 398.5,-386.1667 398.5,-382.3333 398.5,-382.3333 398.5,-374.6667 398.5,-374.6667 398.5,-370.8333 402.3333,-367 406.1667,-367 406.1667,-367 559.8333,-367 559.8333,-367 563.6667,-367 567.5,-370.8333 567.5,-374.6667 567.5,-374.6667 567.5,-382.3333 567.5,-382.3333 567.5,-386.1667 563.6667,-390 559.8333,-390"/>
<text text-anchor="middle" x="483" y="-374.8" font-family="Arial" font-size="14.00" fill="#cfffac">src/store/actions/view.js</text>
</g>
<!-- src/App.js&#45;&gt;src/store/actions/view.js -->
<g id="edge7" class="edge">
<title>src/App.js&#45;&gt;src/store/actions/view.js</title>
<path fill="none" stroke="#757575" d="M246.4198,-267.038C266.8313,-288.8356 314.5145,-335.9033 365,-358.5 372.4157,-361.8192 380.319,-364.591 388.3878,-366.9052"/>
<polygon fill="#757575" stroke="#757575" points="387.7293,-370.351 398.2905,-369.5072 389.5083,-363.5808 387.7293,-370.351"/>
</g>
<!-- src/ui/logo.js -->
<g id="node9" class="node">
<title>src/ui/logo.js</title>
<path fill="none" stroke="#c6c5fe" d="M523.8333,-165C523.8333,-165 442.1667,-165 442.1667,-165 438.3333,-165 434.5,-161.1667 434.5,-157.3333 434.5,-157.3333 434.5,-149.6667 434.5,-149.6667 434.5,-145.8333 438.3333,-142 442.1667,-142 442.1667,-142 523.8333,-142 523.8333,-142 527.6667,-142 531.5,-145.8333 531.5,-149.6667 531.5,-149.6667 531.5,-157.3333 531.5,-157.3333 531.5,-161.1667 527.6667,-165 523.8333,-165"/>
<text text-anchor="middle" x="483" y="-149.8" font-family="Arial" font-size="14.00" fill="#c6c5fe">src/ui/logo.js</text>
</g>
<!-- src/App.js&#45;&gt;src/ui/logo.js -->
<g id="edge8" class="edge">
<title>src/App.js&#45;&gt;src/ui/logo.js</title>
<path fill="none" stroke="#757575" d="M258.5066,-243.9528C283.9939,-231.0901 326.9337,-210.061 365,-194.5 388.3277,-184.964 414.7906,-175.6374 436.736,-168.2949"/>
<polygon fill="#757575" stroke="#757575" points="438.0826,-171.5359 446.4736,-165.0673 435.8802,-164.8913 438.0826,-171.5359"/>
</g>
<!-- src/ui/footer/index.js -->
<g id="node11" class="node">
<title>src/ui/footer/index.js</title>
<path fill="none" stroke="#c6c5fe" d="M1073.8333,-421C1073.8333,-421 944.1667,-421 944.1667,-421 940.3333,-421 936.5,-417.1667 936.5,-413.3333 936.5,-413.3333 936.5,-405.6667 936.5,-405.6667 936.5,-401.8333 940.3333,-398 944.1667,-398 944.1667,-398 1073.8333,-398 1073.8333,-398 1077.6667,-398 1081.5,-401.8333 1081.5,-405.6667 1081.5,-405.6667 1081.5,-413.3333 1081.5,-413.3333 1081.5,-417.1667 1077.6667,-421 1073.8333,-421"/>
<text text-anchor="middle" x="1009" y="-405.8" font-family="Arial" font-size="14.00" fill="#c6c5fe">src/ui/footer/index.js</text>
</g>
<!-- src/containers/checkout.js&#45;&gt;src/ui/footer/index.js -->
<g id="edge10" class="edge">
<title>src/containers/checkout.js&#45;&gt;src/ui/footer/index.js</title>
<path fill="none" stroke="#757575" d="M575.6253,-304.4317C584.6917,-307.6636 593.3499,-311.9221 601,-317.5 628.6313,-337.6468 608.2872,-366.927 637,-385.5 730.8691,-446.2198 867.4388,-435.9223 946.3405,-422.8023"/>
<polygon fill="#757575" stroke="#757575" points="947.354,-426.179 956.6102,-421.0242 946.1597,-419.2816 947.354,-426.179"/>
</g>
<!-- src/ui/inputs/textInput.js -->
<g id="node12" class="node">
<title>src/ui/inputs/textInput.js</title>
<path fill="none" stroke="#cfffac" d="M834.3333,-499C834.3333,-499 682.6667,-499 682.6667,-499 678.8333,-499 675,-495.1667 675,-491.3333 675,-491.3333 675,-483.6667 675,-483.6667 675,-479.8333 678.8333,-476 682.6667,-476 682.6667,-476 834.3333,-476 834.3333,-476 838.1667,-476 842,-479.8333 842,-483.6667 842,-483.6667 842,-491.3333 842,-491.3333 842,-495.1667 838.1667,-499 834.3333,-499"/>
<text text-anchor="middle" x="758.5" y="-483.8" font-family="Arial" font-size="14.00" fill="#cfffac">src/ui/inputs/textInput.js</text>
</g>
<!-- src/containers/checkout.js&#45;&gt;src/ui/inputs/textInput.js -->
<g id="edge11" class="edge">
<title>src/containers/checkout.js&#45;&gt;src/ui/inputs/textInput.js</title>
<path fill="none" stroke="#757575" d="M575.6502,-302.0648C584.9868,-305.687 593.6986,-310.6848 601,-317.5 649.2257,-362.5143 589.5623,-415.656 637,-461.5 645.0163,-469.247 654.7476,-474.9258 665.1746,-479.0556"/>
<polygon fill="#757575" stroke="#757575" points="664.3222,-482.4642 674.9169,-482.4277 666.6119,-475.8493 664.3222,-482.4642"/>
</g>
<!-- src/ui/loader.js -->
<g id="node13" class="node">
<title>src/ui/loader.js</title>
<path fill="none" stroke="#cfffac" d="M1055.8333,-539C1055.8333,-539 962.1667,-539 962.1667,-539 958.3333,-539 954.5,-535.1667 954.5,-531.3333 954.5,-531.3333 954.5,-523.6667 954.5,-523.6667 954.5,-519.8333 958.3333,-516 962.1667,-516 962.1667,-516 1055.8333,-516 1055.8333,-516 1059.6667,-516 1063.5,-519.8333 1063.5,-523.6667 1063.5,-523.6667 1063.5,-531.3333 1063.5,-531.3333 1063.5,-535.1667 1059.6667,-539 1055.8333,-539"/>
<text text-anchor="middle" x="1009" y="-523.8" font-family="Arial" font-size="14.00" fill="#cfffac">src/ui/loader.js</text>
</g>
<!-- src/containers/checkout.js&#45;&gt;src/ui/loader.js -->
<g id="edge12" class="edge">
<title>src/containers/checkout.js&#45;&gt;src/ui/loader.js</title>
<path fill="none" stroke="#757575" d="M575.7626,-301.5313C585.1378,-305.2371 593.8278,-310.4004 601,-317.5 662.3924,-378.2709 571.9292,-451.6852 637,-508.5 681.2388,-547.1259 849.9636,-540.5061 944.2596,-533.4003"/>
<polygon fill="#757575" stroke="#757575" points="944.5622,-536.8874 954.2612,-532.6238 944.0203,-529.9084 944.5622,-536.8874"/>
</g>
<!-- src/ui/menuItem/index.js -->
<g id="node14" class="node">
<title>src/ui/menuItem/index.js</title>
<path fill="none" stroke="#c6c5fe" d="M837.3333,-267C837.3333,-267 679.6667,-267 679.6667,-267 675.8333,-267 672,-263.1667 672,-259.3333 672,-259.3333 672,-251.6667 672,-251.6667 672,-247.8333 675.8333,-244 679.6667,-244 679.6667,-244 837.3333,-244 837.3333,-244 841.1667,-244 845,-247.8333 845,-251.6667 845,-251.6667 845,-259.3333 845,-259.3333 845,-263.1667 841.1667,-267 837.3333,-267"/>
<text text-anchor="middle" x="758.5" y="-251.8" font-family="Arial" font-size="14.00" fill="#c6c5fe">src/ui/menuItem/index.js</text>
</g>
<!-- src/containers/checkout.js&#45;&gt;src/ui/menuItem/index.js -->
<g id="edge13" class="edge">
<title>src/containers/checkout.js&#45;&gt;src/ui/menuItem/index.js</title>
<path fill="none" stroke="#757575" d="M560.4753,-284.9701C594.8056,-279.8611 635.3576,-273.8261 670.7953,-268.5522"/>
<polygon fill="#757575" stroke="#757575" points="671.7535,-271.9483 681.1294,-267.0143 670.7231,-265.0245 671.7535,-271.9483"/>
</g>
<!-- src/ui/price.js -->
<g id="node15" class="node">
<title>src/ui/price.js</title>
<path fill="none" stroke="#cfffac" d="M1051.8333,-308C1051.8333,-308 966.1667,-308 966.1667,-308 962.3333,-308 958.5,-304.1667 958.5,-300.3333 958.5,-300.3333 958.5,-292.6667 958.5,-292.6667 958.5,-288.8333 962.3333,-285 966.1667,-285 966.1667,-285 1051.8333,-285 1051.8333,-285 1055.6667,-285 1059.5,-288.8333 1059.5,-292.6667 1059.5,-292.6667 1059.5,-300.3333 1059.5,-300.3333 1059.5,-304.1667 1055.6667,-308 1051.8333,-308"/>
<text text-anchor="middle" x="1009" y="-292.8" font-family="Arial" font-size="14.00" fill="#cfffac">src/ui/price.js</text>
</g>
<!-- src/containers/checkout.js&#45;&gt;src/ui/price.js -->
<g id="edge14" class="edge">
<title>src/containers/checkout.js&#45;&gt;src/ui/price.js</title>
<path fill="none" stroke="#757575" d="M575.5256,-296.5C682.8191,-296.5 856.6251,-296.5 948.1568,-296.5"/>
<polygon fill="#757575" stroke="#757575" points="948.3645,-300.0001 958.3644,-296.5 948.3644,-293.0001 948.3645,-300.0001"/>
</g>
<!-- src/containers/menu.js&#45;&gt;src/ui/footer/index.js -->
<g id="edge15" class="edge">
<title>src/containers/menu.js&#45;&gt;src/ui/footer/index.js</title>
<path fill="none" stroke="#757575" d="M564.2152,-259.7387C577.3897,-263.1945 590.2255,-268.4976 601,-276.5 629.403,-297.5955 608.4817,-326.5606 637,-347.5 659.9838,-364.3757 823.9367,-386.9928 926.3672,-399.7236"/>
<polygon fill="#757575" stroke="#757575" points="926.0339,-403.209 936.3877,-400.962 926.8925,-396.2618 926.0339,-403.209"/>
</g>
<!-- src/containers/menu.js&#45;&gt;src/ui/loader.js -->
<g id="edge16" class="edge">
<title>src/containers/menu.js&#45;&gt;src/ui/loader.js</title>
<path fill="none" stroke="#757575" d="M564.017,-258.1378C577.5178,-261.7113 590.517,-267.468 601,-276.5 639.0121,-309.2508 601.6679,-347.8745 637,-383.5 717.4668,-464.6349 774.055,-424.6814 880,-467.5 913.505,-481.0413 950.8482,-498.7024 976.6986,-511.3512"/>
<polygon fill="#757575" stroke="#757575" points="975.4935,-514.659 986.0113,-515.9345 978.5846,-508.3784 975.4935,-514.659"/>
</g>
<!-- src/containers/menu.js&#45;&gt;src/ui/menuItem/index.js -->
<g id="edge17" class="edge">
<title>src/containers/menu.js&#45;&gt;src/ui/menuItem/index.js</title>
<path fill="none" stroke="#757575" d="M564.169,-255.5C594.6753,-255.5 629.6626,-255.5 661.4679,-255.5"/>
<polygon fill="#757575" stroke="#757575" points="661.6728,-259.0001 671.6728,-255.5 661.6728,-252.0001 661.6728,-259.0001"/>
</g>
<!-- src/ui/secondaryHead.js -->
<g id="node16" class="node">
<title>src/ui/secondaryHead.js</title>
<path fill="none" stroke="#cfffac" d="M837.3333,-226C837.3333,-226 679.6667,-226 679.6667,-226 675.8333,-226 672,-222.1667 672,-218.3333 672,-218.3333 672,-210.6667 672,-210.6667 672,-206.8333 675.8333,-203 679.6667,-203 679.6667,-203 837.3333,-203 837.3333,-203 841.1667,-203 845,-206.8333 845,-210.6667 845,-210.6667 845,-218.3333 845,-218.3333 845,-222.1667 841.1667,-226 837.3333,-226"/>
<text text-anchor="middle" x="758.5" y="-210.8" font-family="Arial" font-size="14.00" fill="#cfffac">src/ui/secondaryHead.js</text>
</g>
<!-- src/containers/menu.js&#45;&gt;src/ui/secondaryHead.js -->
<g id="edge18" class="edge">
<title>src/containers/menu.js&#45;&gt;src/ui/secondaryHead.js</title>
<path fill="none" stroke="#757575" d="M560.4753,-243.9701C594.8056,-238.8611 635.3576,-232.8261 670.7953,-227.5522"/>
<polygon fill="#757575" stroke="#757575" points="671.7535,-230.9483 681.1294,-226.0143 670.7231,-224.0245 671.7535,-230.9483"/>
</g>
<!-- src/containers/pay/paymentForm.js -->
<g id="node17" class="node">
<title>src/containers/pay/paymentForm.js</title>
<path fill="none" stroke="#c6c5fe" d="M872.3333,-579C872.3333,-579 644.6667,-579 644.6667,-579 640.8333,-579 637,-575.1667 637,-571.3333 637,-571.3333 637,-563.6667 637,-563.6667 637,-559.8333 640.8333,-556 644.6667,-556 644.6667,-556 872.3333,-556 872.3333,-556 876.1667,-556 880,-559.8333 880,-563.6667 880,-563.6667 880,-571.3333 880,-571.3333 880,-575.1667 876.1667,-579 872.3333,-579"/>
<text text-anchor="middle" x="758.5" y="-563.8" font-family="Arial" font-size="14.00" fill="#c6c5fe">src/containers/pay/paymentForm.js</text>
</g>
<!-- src/containers/pay/index.js&#45;&gt;src/containers/pay/paymentForm.js -->
<g id="edge19" class="edge">
<title>src/containers/pay/index.js&#45;&gt;src/containers/pay/paymentForm.js</title>
<path fill="none" stroke="#757575" d="M577.1529,-343.1707C585.9858,-346.8189 594.1708,-351.7934 601,-358.5 660.1422,-416.5802 578.874,-482.4028 637,-541.5 640.4578,-545.0156 644.2668,-548.1106 648.3368,-550.8322"/>
<polygon fill="#757575" stroke="#757575" points="646.6284,-553.8876 657.0286,-555.9091 650.159,-547.8432 646.6284,-553.8876"/>
</g>
<!-- src/containers/queue.js&#45;&gt;src/ui/footer/index.js -->
<g id="edge23" class="edge">
<title>src/containers/queue.js&#45;&gt;src/ui/footer/index.js</title>
<path fill="none" stroke="#757575" d="M566.7049,-222.1213C578.6791,-225.2566 590.486,-229.5749 601,-235.5 622.126,-247.4055 616.5483,-263.4702 637,-276.5 731.8933,-336.9568 774.9426,-307.2172 880,-347.5 914.7147,-360.8109 952.9173,-379.7418 978.6718,-393.1761"/>
<polygon fill="#757575" stroke="#757575" points="977.088,-396.2976 987.5676,-397.8563 980.3473,-390.1027 977.088,-396.2976"/>
</g>
<!-- src/containers/queue.js&#45;&gt;src/ui/menuItem/index.js -->
<g id="edge24" class="edge">
<title>src/containers/queue.js&#45;&gt;src/ui/menuItem/index.js</title>
<path fill="none" stroke="#757575" d="M560.4753,-226.0299C594.8056,-231.1389 635.3576,-237.1739 670.7953,-242.4478"/>
<polygon fill="#757575" stroke="#757575" points="670.7231,-245.9755 681.1294,-243.9857 671.7535,-239.0517 670.7231,-245.9755"/>
</g>
<!-- src/containers/queue.js&#45;&gt;src/ui/secondaryHead.js -->
<g id="edge26" class="edge">
<title>src/containers/queue.js&#45;&gt;src/ui/secondaryHead.js</title>
<path fill="none" stroke="#757575" d="M566.7812,-214.5C596.6494,-214.5 630.5387,-214.5 661.4296,-214.5"/>
<polygon fill="#757575" stroke="#757575" points="661.7806,-218.0001 671.7806,-214.5 661.7805,-211.0001 661.7806,-218.0001"/>
</g>
<!-- src/ui/beerAnimation.js -->
<g id="node18" class="node">
<title>src/ui/beerAnimation.js</title>
<path fill="none" stroke="#cfffac" d="M832.3333,-185C832.3333,-185 684.6667,-185 684.6667,-185 680.8333,-185 677,-181.1667 677,-177.3333 677,-177.3333 677,-169.6667 677,-169.6667 677,-165.8333 680.8333,-162 684.6667,-162 684.6667,-162 832.3333,-162 832.3333,-162 836.1667,-162 840,-165.8333 840,-169.6667 840,-169.6667 840,-177.3333 840,-177.3333 840,-181.1667 836.1667,-185 832.3333,-185"/>
<text text-anchor="middle" x="758.5" y="-169.8" font-family="Arial" font-size="14.00" fill="#cfffac">src/ui/beerAnimation.js</text>
</g>
<!-- src/containers/queue.js&#45;&gt;src/ui/beerAnimation.js -->
<g id="edge22" class="edge">
<title>src/containers/queue.js&#45;&gt;src/ui/beerAnimation.js</title>
<path fill="none" stroke="#757575" d="M560.4753,-202.9701C594.8056,-197.8611 635.3576,-191.8261 670.7953,-186.5522"/>
<polygon fill="#757575" stroke="#757575" points="671.7535,-189.9483 681.1294,-185.0143 670.7231,-183.0245 671.7535,-189.9483"/>
</g>
<!-- src/ui/primaryHead.js -->
<g id="node19" class="node">
<title>src/ui/primaryHead.js</title>
<path fill="none" stroke="#cfffac" d="M826.8333,-144C826.8333,-144 690.1667,-144 690.1667,-144 686.3333,-144 682.5,-140.1667 682.5,-136.3333 682.5,-136.3333 682.5,-128.6667 682.5,-128.6667 682.5,-124.8333 686.3333,-121 690.1667,-121 690.1667,-121 826.8333,-121 826.8333,-121 830.6667,-121 834.5,-124.8333 834.5,-128.6667 834.5,-128.6667 834.5,-136.3333 834.5,-136.3333 834.5,-140.1667 830.6667,-144 826.8333,-144"/>
<text text-anchor="middle" x="758.5" y="-128.8" font-family="Arial" font-size="14.00" fill="#cfffac">src/ui/primaryHead.js</text>
</g>
<!-- src/containers/queue.js&#45;&gt;src/ui/primaryHead.js -->
<g id="edge25" class="edge">
<title>src/containers/queue.js&#45;&gt;src/ui/primaryHead.js</title>
<path fill="none" stroke="#757575" d="M523.6474,-202.9409C546.764,-195.8217 576.0002,-185.8884 601,-174.5 617.8566,-166.8211 619.5973,-159.8448 637,-153.5 648.1556,-149.4328 660.1811,-146.1422 672.1758,-143.4826"/>
<polygon fill="#757575" stroke="#757575" points="673.146,-146.8559 682.2244,-141.3938 671.7213,-140.0024 673.146,-146.8559"/>
</g>
<!-- src/ui/logo.js&#45;&gt;src/ui/primaryHead.js -->
<g id="edge36" class="edge">
<title>src/ui/logo.js&#45;&gt;src/ui/primaryHead.js</title>
<path fill="none" stroke="#757575" d="M531.6197,-149.794C570.4765,-146.8321 625.9152,-142.6063 672.2638,-139.0734"/>
<polygon fill="#757575" stroke="#757575" points="672.6043,-142.5576 682.3094,-138.3076 672.0722,-135.5779 672.6043,-142.5576"/>
</g>
<!-- src/App.test.js -->
<g id="node10" class="node">
<title>src/App.test.js</title>
<path fill="none" stroke="#c6c5fe" d="M99.3333,-267C99.3333,-267 7.6667,-267 7.6667,-267 3.8333,-267 0,-263.1667 0,-259.3333 0,-259.3333 0,-251.6667 0,-251.6667 0,-247.8333 3.8333,-244 7.6667,-244 7.6667,-244 99.3333,-244 99.3333,-244 103.1667,-244 107,-247.8333 107,-251.6667 107,-251.6667 107,-259.3333 107,-259.3333 107,-263.1667 103.1667,-267 99.3333,-267"/>
<text text-anchor="middle" x="53.5" y="-251.8" font-family="Arial" font-size="14.00" fill="#c6c5fe">src/App.test.js</text>
</g>
<!-- src/App.test.js&#45;&gt;src/App.js -->
<g id="edge9" class="edge">
<title>src/App.test.js&#45;&gt;src/App.js</title>
<path fill="none" stroke="#757575" d="M107.2689,-255.5C132.1089,-255.5 161.4338,-255.5 185.8161,-255.5"/>
<polygon fill="#757575" stroke="#757575" points="185.9355,-259.0001 195.9355,-255.5 185.9355,-252.0001 185.9355,-259.0001"/>
</g>
<!-- src/ui/footer/primaryButton.js -->
<g id="node27" class="node">
<title>src/ui/footer/primaryButton.js</title>
<path fill="none" stroke="#cfffac" d="M1340.3333,-400C1340.3333,-400 1155.6667,-400 1155.6667,-400 1151.8333,-400 1148,-396.1667 1148,-392.3333 1148,-392.3333 1148,-384.6667 1148,-384.6667 1148,-380.8333 1151.8333,-377 1155.6667,-377 1155.6667,-377 1340.3333,-377 1340.3333,-377 1344.1667,-377 1348,-380.8333 1348,-384.6667 1348,-384.6667 1348,-392.3333 1348,-392.3333 1348,-396.1667 1344.1667,-400 1340.3333,-400"/>
<text text-anchor="middle" x="1248" y="-384.8" font-family="Arial" font-size="14.00" fill="#cfffac">src/ui/footer/primaryButton.js</text>
</g>
<!-- src/ui/footer/index.js&#45;&gt;src/ui/footer/primaryButton.js -->
<g id="edge34" class="edge">
<title>src/ui/footer/index.js&#45;&gt;src/ui/footer/primaryButton.js</title>
<path fill="none" stroke="#757575" d="M1081.6813,-403.1138C1099.376,-401.559 1118.6974,-399.8613 1137.7063,-398.1911"/>
<polygon fill="#757575" stroke="#757575" points="1138.2585,-401.6561 1147.9138,-397.2942 1137.6458,-394.683 1138.2585,-401.6561"/>
</g>
<!-- src/ui/footer/secondaryButton.js -->
<g id="node28" class="node">
<title>src/ui/footer/secondaryButton.js</title>
<path fill="none" stroke="#cfffac" d="M1350.3333,-441C1350.3333,-441 1145.6667,-441 1145.6667,-441 1141.8333,-441 1138,-437.1667 1138,-433.3333 1138,-433.3333 1138,-425.6667 1138,-425.6667 1138,-421.8333 1141.8333,-418 1145.6667,-418 1145.6667,-418 1350.3333,-418 1350.3333,-418 1354.1667,-418 1358,-421.8333 1358,-425.6667 1358,-425.6667 1358,-433.3333 1358,-433.3333 1358,-437.1667 1354.1667,-441 1350.3333,-441"/>
<text text-anchor="middle" x="1248" y="-425.8" font-family="Arial" font-size="14.00" fill="#cfffac">src/ui/footer/secondaryButton.js</text>
</g>
<!-- src/ui/footer/index.js&#45;&gt;src/ui/footer/secondaryButton.js -->
<g id="edge35" class="edge">
<title>src/ui/footer/index.js&#45;&gt;src/ui/footer/secondaryButton.js</title>
<path fill="none" stroke="#757575" d="M1081.6813,-415.5821C1096.2141,-416.7982 1111.8441,-418.1062 1127.4972,-419.4161"/>
<polygon fill="#757575" stroke="#757575" points="1127.5184,-422.93 1137.7754,-420.2762 1128.1022,-415.9544 1127.5184,-422.93"/>
</g>
<!-- src/ui/menuItem/index.js&#45;&gt;src/store/actions/entities.js -->
<g id="edge38" class="edge">
<title>src/ui/menuItem/index.js&#45;&gt;src/store/actions/entities.js</title>
<path fill="none" stroke="#757575" d="M845.2886,-252.1127C857.8113,-248.6426 869.8681,-243.3655 880,-235.5 911.4402,-211.0928 887.8774,-181.6659 916,-153.5 927.1477,-142.3352 941.8534,-133.9678 956.2719,-127.8058"/>
<polygon fill="#757575" stroke="#757575" points="957.6679,-131.0173 965.6651,-124.0677 955.0796,-124.5134 957.6679,-131.0173"/>
</g>
<!-- src/ui/menuItem/index.js&#45;&gt;src/ui/price.js -->
<g id="edge41" class="edge">
<title>src/ui/menuItem/index.js&#45;&gt;src/ui/price.js</title>
<path fill="none" stroke="#757575" d="M828.9448,-267.0299C866.5107,-273.1784 912.2698,-280.6679 948.257,-286.558"/>
<polygon fill="#757575" stroke="#757575" points="947.6991,-290.0132 958.1331,-288.1745 948.8298,-283.1051 947.6991,-290.0132"/>
</g>
<!-- src/ui/menuItem/counter.js -->
<g id="node30" class="node">
<title>src/ui/menuItem/counter.js</title>
<path fill="none" stroke="#c6c5fe" d="M1093.8333,-226C1093.8333,-226 924.1667,-226 924.1667,-226 920.3333,-226 916.5,-222.1667 916.5,-218.3333 916.5,-218.3333 916.5,-210.6667 916.5,-210.6667 916.5,-206.8333 920.3333,-203 924.1667,-203 924.1667,-203 1093.8333,-203 1093.8333,-203 1097.6667,-203 1101.5,-206.8333 1101.5,-210.6667 1101.5,-210.6667 1101.5,-218.3333 1101.5,-218.3333 1101.5,-222.1667 1097.6667,-226 1093.8333,-226"/>
<text text-anchor="middle" x="1009" y="-210.8" font-family="Arial" font-size="14.00" fill="#c6c5fe">src/ui/menuItem/counter.js</text>
</g>
<!-- src/ui/menuItem/index.js&#45;&gt;src/ui/menuItem/counter.js -->
<g id="edge39" class="edge">
<title>src/ui/menuItem/index.js&#45;&gt;src/ui/menuItem/counter.js</title>
<path fill="none" stroke="#757575" d="M828.9448,-243.9701C859.8919,-238.9049 896.3994,-232.9296 928.4232,-227.6882"/>
<polygon fill="#757575" stroke="#757575" points="929.347,-231.0837 938.6503,-226.0143 928.2163,-224.1756 929.347,-231.0837"/>
</g>
<!-- src/ui/popupInfo.js -->
<g id="node31" class="node">
<title>src/ui/popupInfo.js</title>
<path fill="none" stroke="#cfffac" d="M1068.3333,-185C1068.3333,-185 949.6667,-185 949.6667,-185 945.8333,-185 942,-181.1667 942,-177.3333 942,-177.3333 942,-169.6667 942,-169.6667 942,-165.8333 945.8333,-162 949.6667,-162 949.6667,-162 1068.3333,-162 1068.3333,-162 1072.1667,-162 1076,-165.8333 1076,-169.6667 1076,-169.6667 1076,-177.3333 1076,-177.3333 1076,-181.1667 1072.1667,-185 1068.3333,-185"/>
<text text-anchor="middle" x="1009" y="-169.8" font-family="Arial" font-size="14.00" fill="#cfffac">src/ui/popupInfo.js</text>
</g>
<!-- src/ui/menuItem/index.js&#45;&gt;src/ui/popupInfo.js -->
<g id="edge40" class="edge">
<title>src/ui/menuItem/index.js&#45;&gt;src/ui/popupInfo.js</title>
<path fill="none" stroke="#757575" d="M845.2981,-248.7527C857.4126,-245.685 869.3458,-241.4134 880,-235.5 901.2028,-223.7319 895.1531,-206.8877 916,-194.5 921.1049,-191.4666 926.6054,-188.8709 932.2903,-186.6499"/>
<polygon fill="#757575" stroke="#757575" points="933.7115,-189.8608 941.9946,-183.2547 931.3997,-183.2535 933.7115,-189.8608"/>
</g>
<!-- src/ui/text.js -->
<g id="node32" class="node">
<title>src/ui/text.js</title>
<path fill="none" stroke="#cfffac" d="M1047.3333,-267C1047.3333,-267 970.6667,-267 970.6667,-267 966.8333,-267 963,-263.1667 963,-259.3333 963,-259.3333 963,-251.6667 963,-251.6667 963,-247.8333 966.8333,-244 970.6667,-244 970.6667,-244 1047.3333,-244 1047.3333,-244 1051.1667,-244 1055,-247.8333 1055,-251.6667 1055,-251.6667 1055,-259.3333 1055,-259.3333 1055,-263.1667 1051.1667,-267 1047.3333,-267"/>
<text text-anchor="middle" x="1009" y="-251.8" font-family="Arial" font-size="14.00" fill="#cfffac">src/ui/text.js</text>
</g>
<!-- src/ui/menuItem/index.js&#45;&gt;src/ui/text.js -->
<g id="edge42" class="edge">
<title>src/ui/menuItem/index.js&#45;&gt;src/ui/text.js</title>
<path fill="none" stroke="#757575" d="M845.0587,-255.5C880.6341,-255.5 920.8275,-255.5 952.5128,-255.5"/>
<polygon fill="#757575" stroke="#757575" points="952.9132,-259.0001 962.9131,-255.5 952.9131,-252.0001 952.9132,-259.0001"/>
</g>
<!-- src/containers/pay/paymentForm.js&#45;&gt;src/ui/footer/index.js -->
<g id="edge20" class="edge">
<title>src/containers/pay/paymentForm.js&#45;&gt;src/ui/footer/index.js</title>
<path fill="none" stroke="#757575" d="M786.3625,-555.9027C811.5491,-544.9732 849.2765,-527.4771 880,-508.5 920.3529,-483.575 963.301,-448.7259 988.0578,-427.7139"/>
<polygon fill="#757575" stroke="#757575" points="990.4031,-430.3136 995.7261,-421.153 985.8523,-424.9947 990.4031,-430.3136"/>
</g>
<!-- src/containers/pay/paymentForm.js&#45;&gt;src/ui/loader.js -->
<g id="edge21" class="edge">
<title>src/containers/pay/paymentForm.js&#45;&gt;src/ui/loader.js</title>
<path fill="none" stroke="#757575" d="M830.6189,-555.984C866.5323,-550.2493 909.5995,-543.3723 944.4191,-537.8123"/>
<polygon fill="#757575" stroke="#757575" points="945.1515,-541.2398 954.4745,-536.2067 944.0477,-534.3274 945.1515,-541.2398"/>
</g>
<!-- src/index.js -->
<g id="node20" class="node">
<title>src/index.js</title>
<path fill="none" stroke="#c6c5fe" d="M90.3333,-64C90.3333,-64 16.6667,-64 16.6667,-64 12.8333,-64 9,-60.1667 9,-56.3333 9,-56.3333 9,-48.6667 9,-48.6667 9,-44.8333 12.8333,-41 16.6667,-41 16.6667,-41 90.3333,-41 90.3333,-41 94.1667,-41 98,-44.8333 98,-48.6667 98,-48.6667 98,-56.3333 98,-56.3333 98,-60.1667 94.1667,-64 90.3333,-64"/>
<text text-anchor="middle" x="53.5" y="-48.8" font-family="Arial" font-size="14.00" fill="#c6c5fe">src/index.js</text>
</g>
<!-- src/index.js&#45;&gt;src/App.js -->
<g id="edge27" class="edge">
<title>src/index.js&#45;&gt;src/App.js</title>
<path fill="none" stroke="#757575" d="M64.1008,-64.2916C94.3403,-97.9278 181.2374,-194.586 218.5912,-236.1357"/>
<polygon fill="#757575" stroke="#757575" points="216.0815,-238.5792 225.3699,-243.6759 221.2871,-233.8993 216.0815,-238.5792"/>
</g>
<!-- src/serviceWorker.js -->
<g id="node21" class="node">
<title>src/serviceWorker.js</title>
<path fill="none" stroke="#cfffac" d="M301.3333,-23C301.3333,-23 170.6667,-23 170.6667,-23 166.8333,-23 163,-19.1667 163,-15.3333 163,-15.3333 163,-7.6667 163,-7.6667 163,-3.8333 166.8333,0 170.6667,0 170.6667,0 301.3333,0 301.3333,0 305.1667,0 309,-3.8333 309,-7.6667 309,-7.6667 309,-15.3333 309,-15.3333 309,-19.1667 305.1667,-23 301.3333,-23"/>
<text text-anchor="middle" x="236" y="-7.8" font-family="Arial" font-size="14.00" fill="#cfffac">src/serviceWorker.js</text>
</g>
<!-- src/index.js&#45;&gt;src/serviceWorker.js -->
<g id="edge28" class="edge">
<title>src/index.js&#45;&gt;src/serviceWorker.js</title>
<path fill="none" stroke="#757575" d="M98.1445,-42.4703C121.2479,-37.2799 149.7999,-30.8655 174.9162,-25.2229"/>
<polygon fill="#757575" stroke="#757575" points="175.7263,-28.6283 184.7159,-23.0214 174.1919,-21.7985 175.7263,-28.6283"/>
</g>
<!-- src/store/reducers/index.js -->
<g id="node22" class="node">
<title>src/store/reducers/index.js</title>
<path fill="none" stroke="#c6c5fe" d="M321.3333,-64C321.3333,-64 150.6667,-64 150.6667,-64 146.8333,-64 143,-60.1667 143,-56.3333 143,-56.3333 143,-48.6667 143,-48.6667 143,-44.8333 146.8333,-41 150.6667,-41 150.6667,-41 321.3333,-41 321.3333,-41 325.1667,-41 329,-44.8333 329,-48.6667 329,-48.6667 329,-56.3333 329,-56.3333 329,-60.1667 325.1667,-64 321.3333,-64"/>
<text text-anchor="middle" x="236" y="-48.8" font-family="Arial" font-size="14.00" fill="#c6c5fe">src/store/reducers/index.js</text>
</g>
<!-- src/index.js&#45;&gt;src/store/reducers/index.js -->
<g id="edge29" class="edge">
<title>src/index.js&#45;&gt;src/store/reducers/index.js</title>
<path fill="none" stroke="#757575" d="M98.1445,-52.5C108.7795,-52.5 120.569,-52.5 132.6464,-52.5"/>
<polygon fill="#757575" stroke="#757575" points="132.8402,-56.0001 142.8401,-52.5 132.8401,-49.0001 132.8402,-56.0001"/>
</g>
<!-- src/store/reducers/entities/index.js -->
<g id="node24" class="node">
<title>src/store/reducers/entities/index.js</title>
<path fill="none" stroke="#c6c5fe" d="M593.3333,-64C593.3333,-64 372.6667,-64 372.6667,-64 368.8333,-64 365,-60.1667 365,-56.3333 365,-56.3333 365,-48.6667 365,-48.6667 365,-44.8333 368.8333,-41 372.6667,-41 372.6667,-41 593.3333,-41 593.3333,-41 597.1667,-41 601,-44.8333 601,-48.6667 601,-48.6667 601,-56.3333 601,-56.3333 601,-60.1667 597.1667,-64 593.3333,-64"/>
<text text-anchor="middle" x="483" y="-48.8" font-family="Arial" font-size="14.00" fill="#c6c5fe">src/store/reducers/entities/index.js</text>
</g>
<!-- src/store/reducers/index.js&#45;&gt;src/store/reducers/entities/index.js -->
<g id="edge32" class="edge">
<title>src/store/reducers/index.js&#45;&gt;src/store/reducers/entities/index.js</title>
<path fill="none" stroke="#757575" d="M329.0281,-52.5C337.3828,-52.5 345.936,-52.5 354.5213,-52.5"/>
<polygon fill="#757575" stroke="#757575" points="354.6045,-56.0001 364.6044,-52.5 354.6044,-49.0001 354.6045,-56.0001"/>
</g>
<!-- src/store/reducers/view.js -->
<g id="node26" class="node">
<title>src/store/reducers/view.js</title>
<path fill="none" stroke="#cfffac" d="M564.8333,-23C564.8333,-23 401.1667,-23 401.1667,-23 397.3333,-23 393.5,-19.1667 393.5,-15.3333 393.5,-15.3333 393.5,-7.6667 393.5,-7.6667 393.5,-3.8333 397.3333,0 401.1667,0 401.1667,0 564.8333,0 564.8333,0 568.6667,0 572.5,-3.8333 572.5,-7.6667 572.5,-7.6667 572.5,-15.3333 572.5,-15.3333 572.5,-19.1667 568.6667,-23 564.8333,-23"/>
<text text-anchor="middle" x="483" y="-7.8" font-family="Arial" font-size="14.00" fill="#cfffac">src/store/reducers/view.js</text>
</g>
<!-- src/store/reducers/index.js&#45;&gt;src/store/reducers/view.js -->
<g id="edge33" class="edge">
<title>src/store/reducers/index.js&#45;&gt;src/store/reducers/view.js</title>
<path fill="none" stroke="#757575" d="M305.4606,-40.9701C335.9753,-35.9049 371.9727,-29.9296 403.5491,-24.6882"/>
<polygon fill="#757575" stroke="#757575" points="404.3414,-28.1047 413.6332,-23.0143 403.1951,-21.1992 404.3414,-28.1047"/>
</g>
<!-- src/store/reducers/entities/bar.js -->
<g id="node23" class="node">
<title>src/store/reducers/entities/bar.js</title>
<path fill="none" stroke="#cfffac" d="M861.3333,-23C861.3333,-23 655.6667,-23 655.6667,-23 651.8333,-23 648,-19.1667 648,-15.3333 648,-15.3333 648,-7.6667 648,-7.6667 648,-3.8333 651.8333,0 655.6667,0 655.6667,0 861.3333,0 861.3333,0 865.1667,0 869,-3.8333 869,-7.6667 869,-7.6667 869,-15.3333 869,-15.3333 869,-19.1667 865.1667,-23 861.3333,-23"/>
<text text-anchor="middle" x="758.5" y="-7.8" font-family="Arial" font-size="14.00" fill="#cfffac">src/store/reducers/entities/bar.js</text>
</g>
<!-- src/store/reducers/entities/index.js&#45;&gt;src/store/reducers/entities/bar.js -->
<g id="edge30" class="edge">
<title>src/store/reducers/entities/index.js&#45;&gt;src/store/reducers/entities/bar.js</title>
<path fill="none" stroke="#757575" d="M560.4753,-40.9701C594.8056,-35.8611 635.3576,-29.8261 670.7953,-24.5522"/>
<polygon fill="#757575" stroke="#757575" points="671.7535,-27.9483 681.1294,-23.0143 670.7231,-21.0245 671.7535,-27.9483"/>
</g>
<!-- src/store/reducers/entities/order.js -->
<g id="node25" class="node">
<title>src/store/reducers/entities/order.js</title>
<path fill="none" stroke="#cfffac" d="M867.3333,-64C867.3333,-64 649.6667,-64 649.6667,-64 645.8333,-64 642,-60.1667 642,-56.3333 642,-56.3333 642,-48.6667 642,-48.6667 642,-44.8333 645.8333,-41 649.6667,-41 649.6667,-41 867.3333,-41 867.3333,-41 871.1667,-41 875,-44.8333 875,-48.6667 875,-48.6667 875,-56.3333 875,-56.3333 875,-60.1667 871.1667,-64 867.3333,-64"/>
<text text-anchor="middle" x="758.5" y="-48.8" font-family="Arial" font-size="14.00" fill="#cfffac">src/store/reducers/entities/order.js</text>
</g>
<!-- src/store/reducers/entities/index.js&#45;&gt;src/store/reducers/entities/order.js -->
<g id="edge31" class="edge">
<title>src/store/reducers/entities/index.js&#45;&gt;src/store/reducers/entities/order.js</title>
<path fill="none" stroke="#757575" d="M601.0357,-52.5C611.1129,-52.5 621.3337,-52.5 631.4766,-52.5"/>
<polygon fill="#757575" stroke="#757575" points="631.5852,-56.0001 641.5852,-52.5 631.5852,-49.0001 631.5852,-56.0001"/>
</g>
<!-- src/ui/iconButton.js -->
<g id="node29" class="node">
<title>src/ui/iconButton.js</title>
<path fill="none" stroke="#cfffac" d="M1309.3333,-226C1309.3333,-226 1186.6667,-226 1186.6667,-226 1182.8333,-226 1179,-222.1667 1179,-218.3333 1179,-218.3333 1179,-210.6667 1179,-210.6667 1179,-206.8333 1182.8333,-203 1186.6667,-203 1186.6667,-203 1309.3333,-203 1309.3333,-203 1313.1667,-203 1317,-206.8333 1317,-210.6667 1317,-210.6667 1317,-218.3333 1317,-218.3333 1317,-222.1667 1313.1667,-226 1309.3333,-226"/>
<text text-anchor="middle" x="1248" y="-210.8" font-family="Arial" font-size="14.00" fill="#cfffac">src/ui/iconButton.js</text>
</g>
<!-- src/ui/menuItem/counter.js&#45;&gt;src/ui/iconButton.js -->
<g id="edge37" class="edge">
<title>src/ui/menuItem/counter.js&#45;&gt;src/ui/iconButton.js</title>
<path fill="none" stroke="#757575" d="M1101.7457,-214.5C1123.8341,-214.5 1147.2081,-214.5 1168.6345,-214.5"/>
<polygon fill="#757575" stroke="#757575" points="1168.655,-218.0001 1178.655,-214.5 1168.655,-211.0001 1168.655,-218.0001"/>
</g>
</g>
</svg>
